#!OML:ASF X:\für Bonn\!DataBase\2005_08_10_Bjorn_Final\c3d\bjorn.ASF
:FULLY-SPECIFIED
:DEGREES
166
root -0.429216 19.1174 2.3294 -187.77 -14.9424 -176.401
lowerback -5.04288 -2.4918 -3.81274
upperback 10.4071 -3.77845 0.0317099
thorax 14.5223 -2.54138 1.41043
lowerneck -5.49337 -4.90376 3.40223
upperneck 10.3293 -8.94918 10.0486
head 4.34219 -4.10096 2.00255
rclavicle 3.45885e-014 -8.74653e-015
rhumerus -31.814 1.99617 -80.5226
rradius 41.8086
rwrist 17.7681
rhand -25.3325 22.7517
rfingers 7.12502
rthumb 1.19041 -7.22471
lclavicle 3.45885e-014 -8.74653e-015
lhumerus 4.97712 -45.5364 49.548
lradius 60.2443
lwrist -29.8168
lhand 3.63799 -12.6908
lfingers 7.12502
lthumb 29.07 15.0609
rfemur -11.9298 0.696015 19.2711
rtibia 51.4622
rfoot -20.0637 -3.47244
rtoes -31.5342
lfemur -1.96283 6.03296 -16.414
ltibia 28.7358
lfoot -11.0883 -16.0328
ltoes 14.8822
167
root -0.438586 19.1022 2.31976 -187.381 -13.6281 -176.548
lowerback -5.46227 -2.41809 -3.51994
upperback 10.1238 -3.67481 0.271774
thorax 14.4357 -2.45116 1.52655
lowerneck -5.60701 -4.72961 3.40824
upperneck 10.5434 -8.64142 9.50615
head 4.38909 -3.94925 1.85079
rclavicle 3.3694e-014 -1.43125e-014
rhumerus -31.1475 2.69214 -80.5729
rradius 42.8889
rwrist 17.1626
rhand -25.1969 22.7926
rfingers 7.12502
rthumb 1.3214 -7.18302
lclavicle 3.3694e-014 -1.43125e-014
lhumerus 2.06016 -46.134 51.3718
lradius 58.9157
lwrist -31.757
lhand 4.99905 -12.5275
lfingers 7.12502
lthumb 30.3691 14.9923
rfemur -11.291 0.729502 19.1598
rtibia 50.1634
rfoot -19.9873 -2.7029
rtoes -30.8624
lfemur -2.35376 6.52753 -16.5394
ltibia 29.172
lfoot -11.6672 -15.3412
ltoes 14.4669
168
root -0.44552 19.0901 2.31371 -186.978 -12.3003 -176.65
lowerback -5.83671 -2.35079 -3.2018
upperback 9.84766 -3.59409 0.529109
thorax 14.3312 -2.37285 1.645
lowerneck -5.70838 -4.54139 3.41432
upperneck 10.6985 -8.29608 8.93265
head 4.41491 -3.78313 1.69315
rclavicle -2.45499e-014 1.98785e-014
rhumerus -30.4065 3.41676 -80.6415
rradius 43.9124
rwrist 16.5619
rhand -24.9755 22.7592
rfingers 7.12502
rthumb 1.53524 -7.21505
lclavicle -2.45499e-014 1.98785e-014
lhumerus -1.0817 -46.3131 53.5086
lradius 57.7268
lwrist -33.4987
lhand 6.25531 -12.2362
lfingers 7.12502
lthumb 31.5666 15.0557
rfemur -10.7718 0.775623 19.0675
rtibia 48.9543
rfoot -19.9104 -1.74591
rtoes -29.7351
lfemur -2.74945 7.12167 -16.6044
ltibia 29.5191
lfoot -12.1831 -14.7409
ltoes 14.0555
169
root -0.450576 19.086 2.31009 -186.493 -11.0162 -176.712
lowerback -6.23152 -2.26968 -2.82186
upperback 9.53465 -3.49637 0.768781
thorax 14.1893 -2.27613 1.71322
lowerneck -5.82262 -4.36453 3.46566
upperneck 10.8881 -7.98638 8.38761
head 4.45662 -3.63339 1.53374
rclavicle 2.46493e-014 -1.98785e-015
rhumerus -29.729 4.01845 -80.7557
rradius 44.9113
rwrist 16.0182
rhand -24.7037 22.7262
rfingers 7.12502
rthumb 1.79773 -7.24596
lclavicle 2.46493e-014 -1.98785e-015
lhumerus -4.32558 -46.1402 55.852
lradius 56.6222
lwrist -34.8689
lhand 7.34401 -11.8849
lfingers 7.12502
lthumb 32.6031 15.1982
rfemur -10.4313 0.797607 18.987
rtibia 47.8503
rfoot -19.9608 -0.69398
rtoes -28.8591
lfemur -3.22071 7.83534 -16.617
ltibia 29.7607
lfoot -12.5079 -14.2821
ltoes 13.8744
170
root -0.453077 19.0928 2.30504 -185.87 -9.72673 -176.775
lowerback -6.75154 -2.1757 -2.39185
upperback 9.19633 -3.38255 1.00527
thorax 14.0938 -2.16465 1.74802
lowerneck -5.94586 -4.20527 3.4018
upperneck 11.0474 -7.68604 7.88436
head 4.49796 -3.49087 1.40491
rclavicle 3.05134e-014 -1.35174e-014
rhumerus -29.0066 4.58769 -80.8764
rradius 45.8106
rwrist 15.5053
rhand -24.4719 22.6688
rfingers 7.12502
rthumb 2.02165 -7.3014
lclavicle 3.05134e-014 -1.35174e-014
lhumerus -7.69545 -45.3159 58.4308
lradius 55.6418
lwrist -35.942
lhand 8.31125 -11.5155
lfingers 7.12502
lthumb 33.5229 15.3729
rfemur -10.328 0.873373 18.8958
rtibia 46.8518
rfoot -20.0795 0.391682
rtoes -27.9547
lfemur -3.79209 8.61345 -16.6507
ltibia 29.8877
lfoot -12.7923 -13.8192
ltoes 13.4226
171
root -0.454769 19.105 2.30107 -185.186 -8.50022 -176.761
lowerback -7.27267 -2.07063 -1.91951
upperback 8.82538 -3.26634 1.27538
thorax 13.9616 -2.05012 1.79776
lowerneck -6.05189 -4.07091 3.35528
upperneck 11.1766 -7.41421 7.36829
head 4.52816 -3.36503 1.26865
rclavicle -2.21893e-014 9.93923e-015
rhumerus -28.3751 5.15354 -80.9646
rradius 46.7307
rwrist 14.9662
rhand -24.2602 22.6211
rfingers 7.12502
rthumb 2.22609 -7.34703
lclavicle -2.21893e-014 9.93923e-015
lhumerus -11.0061 -43.8898 61.0719
lradius 54.673
lwrist -36.536
lhand 9.0503 -11.1673
lfingers 7.12502
lthumb 34.225 15.5662
rfemur -10.3798 0.863826 18.8535
rtibia 45.9408
rfoot -20.2065 1.49434
rtoes -27.0762
lfemur -4.41889 9.35919 -16.6322
ltibia 29.934
lfoot -12.9674 -13.4021
ltoes 13.2108
172
root -0.45476 19.1212 2.29471 -184.512 -7.29576 -176.747
lowerback -7.76887 -1.94533 -1.43687
upperback 8.48001 -3.13106 1.50149
thorax 13.8416 -1.92714 1.79661
lowerneck -6.23017 -3.93752 3.46305
upperneck 11.3104 -7.15483 6.77808
head 4.56632 -3.24251 1.08272
rclavicle 3.33089e-014 -1.59028e-015
rhumerus -27.7396 5.62012 -81.1517
rradius 47.5529
rwrist 14.5269
rhand -24.1901 22.6031
rfingers 7.12502
rthumb 2.29378 -7.36436
lclavicle 3.33089e-014 -1.59028e-015
lhumerus -13.9896 -41.9189 63.4435
lradius 53.6511
lwrist -36.4653
lhand 9.47484 -10.8315
lfingers 7.12502
lthumb 34.6281 15.8106
rfemur -10.4667 0.835591 18.799
rtibia 45.0833
rfoot -20.3514 2.5376
rtoes -26.3784
lfemur -5.01335 10.1142 -16.6244
ltibia 29.9343
lfoot -13.153 -12.9815
ltoes 12.8173
173
root -0.454018 19.1346 2.2899 -183.771 -6.09741 -176.71
lowerback -8.25903 -1.8253 -0.968101
upperback 8.09527 -3.00989 1.76833
thorax 13.6783 -1.81593 1.84622
lowerneck -6.41698 -4.50038 3.54567
upperneck 11.5611 -6.72328 6.10414
head 4.62828 -2.57059 0.923725
rclavicle 3.45637e-014 -2.46493e-014
rhumerus -27.1614 6.20241 -81.3039
rradius 48.3354
rwrist 14.0865
rhand -24.2335 22.6016
rfingers 7.12502
rthumb 2.25189 -7.3663
lclavicle 3.45637e-014 -2.46493e-014
lhumerus -16.7634 -39.3136 65.6837
lradius 52.6068
lwrist -35.8146
lhand 9.61822 -10.6262
lfingers 7.12502
lthumb 34.7641 15.9846
rfemur -10.6867 0.784708 18.7453
rtibia 44.2568
rfoot -20.4752 3.60678
rtoes -25.802
lfemur -5.69283 10.9307 -16.6222
ltibia 29.929
lfoot -13.3222 -12.6003
ltoes 12.3042
174
root -0.455816 19.1465 2.28795 -183.082 -4.88538 -176.634
lowerback -8.64048 -1.66401 -0.405945
upperback 7.73032 -2.85576 2.0065
thorax 13.464 -1.68385 1.82051
lowerneck -6.62657 -4.32748 3.65104
upperneck 11.7068 -6.4822 5.50838
head 4.68032 -2.4882 0.732399
rclavicle 2.98922e-014 -1.76918e-014
rhumerus -26.6572 6.64046 -81.498
rradius 49.1502
rwrist 13.8049
rhand -24.3576 22.6178
rfingers 7.12502
rthumb 2.13195 -7.35131
lclavicle 2.98922e-014 -1.76918e-014
lhumerus -19.1891 -36.3555 67.5272
lradius 51.6163
lwrist -34.4277
lhand 9.49215 -10.4632
lfingers 7.12502
lthumb 34.6445 16.1751
rfemur -10.9056 0.708722 18.706
rtibia 43.4422
rfoot -20.568 4.63844
rtoes -25.512
lfemur -6.32511 11.6611 -16.617
ltibia 29.9234
lfoot -13.5303 -12.0622
ltoes 11.5043
175
root -0.459264 19.1578 2.28725 -182.469 -3.6368 -176.555
lowerback -8.88297 -1.46593 0.178792
upperback 7.39644 -2.66651 2.23405
thorax 13.2001 -1.5393 1.77931
lowerneck -6.87412 -4.16194 3.7003
upperneck 11.8633 -6.25055 4.95847
head 4.74703 -2.40932 0.562554
rclavicle -9.69075e-015 -3.57812e-015
rhumerus -26.1606 7.07665 -81.6984
rradius 49.9494
rwrist 13.5478
rhand -24.5581 22.6769
rfingers 7.12502
rthumb 1.93837 -7.294
lclavicle -9.69075e-015 -3.57812e-015
lhumerus -21.2847 -32.983 69.0203
lradius 50.7161
lwrist -32.5611
lhand 9.31461 -10.4898
lfingers 7.12502
lthumb 34.476 16.187
rfemur -11.1045 0.641854 18.6438
rtibia 42.6435
rfoot -20.642 5.62266
rtoes -25.0894
lfemur -6.87338 12.3788 -16.6146
ltibia 29.9217
lfoot -13.7322 -11.5175
ltoes 10.9299
176
root -0.465398 19.1717 2.2877 -181.852 -2.3895 -176.458
lowerback -9.0478 -1.25925 0.796667
upperback 7.03712 -2.47138 2.45689
thorax 12.8616 -1.39198 1.71563
lowerneck -7.05281 -3.99662 3.74906
upperneck 11.9898 -6.0074 4.3909
head 4.79362 -2.3287 0.389904
rclavicle -2.03257e-014 1.66979e-014
rhumerus -25.7792 7.51154 -81.9215
rradius 50.7965
rwrist 13.3606
rhand -24.8246 22.7061
rfingers 7.12502
rthumb 1.68092 -7.26706
lclavicle -2.03257e-014 1.66979e-014
lhumerus -23.2683 -29.1961 70.2301
lradius 50.0144
lwrist -30.3917
lhand 9.13212 -10.5571
lfingers 7.12502
lthumb 34.3027 16.159
rfemur -11.3728 0.516613 18.5731
rtibia 41.8577
rfoot -20.6735 6.53324
rtoes -24.9572
lfemur -7.42458 13.0068 -16.6321
ltibia 29.9103
lfoot -13.9552 -10.8522
ltoes 10.3386
